<svg width="30" height="30" viewBox="0 0 30 30" fill="none" xmlns="http://www.w3.org/2000/svg">
<g clip-path="url(#clip0_12_60)">
<path d="M12.1047 14.9706C12.1047 16.5531 13.3875 17.836 14.9701 17.836C16.5526 17.836 17.8354 16.5531 17.8354 14.9706C17.8354 13.3881 16.5526 12.1052 14.9701 12.1052C13.3875 12.1052 12.1047 13.3881 12.1047 14.9706Z" fill="#CACACA"/>
<path d="M8.26898 9.90082C8.40672 9.52757 8.62647 9.18973 8.912 8.91242C9.18931 8.62689 9.52692 8.40715 9.9004 8.2694C10.2033 8.15177 10.6583 8.01174 11.4964 7.97359C12.403 7.93225 12.6749 7.92334 14.9701 7.92334C17.2655 7.92334 17.5373 7.93202 18.4437 7.97337C19.2818 8.01174 19.7371 8.15177 20.0397 8.2694C20.4132 8.40715 20.7511 8.62689 21.0281 8.91242C21.3137 9.18973 21.5334 9.52734 21.6714 9.90082C21.789 10.2037 21.9291 10.659 21.9672 11.4971C22.0085 12.4034 22.0175 12.6753 22.0175 14.9707C22.0175 17.2659 22.0085 17.5378 21.9672 18.4444C21.9291 19.2825 21.789 19.7375 21.6714 20.0404C21.5334 20.4139 21.3139 20.7515 21.0284 21.0288C20.7511 21.3143 20.4135 21.5341 20.04 21.6718C19.7371 21.7897 19.2818 21.9297 18.4437 21.9679C17.5373 22.0092 17.2657 22.0179 14.9703 22.0179C12.6746 22.0179 12.4028 22.0092 11.4966 21.9679C10.6585 21.9297 10.2033 21.7897 9.9004 21.6718C9.1507 21.3826 8.55817 20.7901 8.26898 20.0404C8.15134 19.7375 8.01132 19.2825 7.97294 18.4444C7.9316 17.5378 7.92292 17.2659 7.92292 14.9707C7.92292 12.6753 7.9316 12.4034 7.97294 11.4971C8.01109 10.659 8.15111 10.2037 8.26898 9.90082ZM14.9701 19.3846C17.4081 19.3846 19.3844 17.4085 19.3844 14.9705C19.3844 12.5325 17.4081 10.5564 14.9701 10.5564C12.5323 10.5564 10.556 12.5325 10.556 14.9705C10.556 17.4085 12.5323 19.3846 14.9701 19.3846ZM10.3815 11.4135C10.9512 11.4135 11.413 10.9516 11.413 10.3819C11.413 9.81219 10.9512 9.35031 10.3815 9.35031C9.81177 9.35031 9.34989 9.81219 9.34989 10.3819C9.35012 10.9516 9.81177 11.4135 10.3815 11.4135Z" fill="#CACACA"/>
<path d="M14.9701 0.000488281C23.2366 0.000488281 29.9402 6.70409 29.9402 14.9706C29.9402 23.2371 23.2366 29.9407 14.9701 29.9407C6.7036 29.9407 -1.90735e-06 23.2371 -1.90735e-06 14.9706C-1.90735e-06 6.70409 6.7036 0.000488281 14.9701 0.000488281ZM6.42584 18.5146C6.46741 19.4297 6.61292 20.0544 6.82535 20.6013C7.27192 21.756 8.18471 22.6687 9.3394 23.1153C9.88603 23.3278 10.511 23.473 11.4258 23.5148C12.3425 23.5566 12.6354 23.5667 14.9699 23.5667C17.3046 23.5667 17.5972 23.5566 18.5141 23.5148C19.429 23.473 20.0539 23.3278 20.6006 23.1153C21.1744 22.8995 21.6938 22.5612 22.1232 22.1237C22.5604 21.6945 22.8987 21.1748 23.1146 20.6013C23.327 20.0546 23.4725 19.4297 23.5141 18.5148C23.5564 17.5979 23.5662 17.3051 23.5662 14.9706C23.5662 12.6361 23.5564 12.3432 23.5143 11.4266C23.4728 10.5115 23.3275 9.88674 23.1151 9.33989C22.8992 8.76632 22.5607 8.24665 22.1232 7.81744C21.694 7.38 21.1744 7.0417 20.6008 6.82584C20.0539 6.61341 19.4292 6.46813 18.5141 6.42633C17.5974 6.38452 17.3046 6.37447 14.9701 6.37447C12.6356 6.37447 12.3427 6.38452 11.4261 6.42655C10.511 6.46813 9.88625 6.61341 9.3394 6.82561C8.76583 7.04148 8.24616 7.38 7.81672 7.81744C7.37951 8.24688 7.04099 8.76632 6.82535 9.33989C6.61269 9.88674 6.46741 10.5115 6.42561 11.4266C6.38381 12.3432 6.37398 12.6361 6.37398 14.9706C6.37398 17.3051 6.38381 17.5979 6.42584 18.5146Z" fill="#CACACA"/>
</g>
<defs>
<clipPath id="clip0_12_60">
<rect width="29.9402" height="29.9402" fill="white" transform="matrix(-1 0 0 1 29.9402 0.000488281)"/>
</clipPath>
</defs>
</svg>
