<svg width="148" height="29" viewBox="0 0 148 29" fill="none" xmlns="http://www.w3.org/2000/svg">
<path d="M0 23V1.99999H5.55V9.8H13.65V1.99999H19.2V23H13.65V14.9H5.55V23H0Z" fill="white"/>
<path d="M22.4859 3.19999C22.4859 2.47999 22.7559 1.87999 23.2959 1.39999C23.8359 0.899994 24.5159 0.649994 25.3359 0.649994C26.1559 0.649994 26.8359 0.899994 27.3759 1.39999C27.9159 1.87999 28.1859 2.47999 28.1859 3.19999C28.1859 3.9 27.9159 4.5 27.3759 4.99999C26.8359 5.49999 26.1559 5.74999 25.3359 5.74999C24.5159 5.74999 23.8359 5.49999 23.2959 4.99999C22.7559 4.5 22.4859 3.9 22.4859 3.19999ZM22.7859 23V7.39999H27.8859V23H22.7859Z" fill="white"/>
<path d="M32.4541 20.63C31.1141 19.15 30.4441 17.24 30.4441 14.9C30.4441 12.56 31.1141 10.65 32.4541 9.16999C33.7941 7.68999 35.4241 6.94999 37.3441 6.94999C38.7241 6.94999 39.9141 7.34999 40.9141 8.14999C41.3741 8.50999 41.7341 8.90999 41.9941 9.34999H42.2941V7.39999H47.3941V28.7H32.5441V24.65H42.2941V20.6H41.9941C41.7141 21.04 41.3541 21.42 40.9141 21.74C39.9341 22.48 38.7441 22.85 37.3441 22.85C35.4241 22.85 33.7941 22.11 32.4541 20.63ZM36.5941 12.26C35.9941 12.9 35.6941 13.78 35.6941 14.9C35.6941 16.02 35.9941 16.9 36.5941 17.54C37.1941 18.18 37.9941 18.5 38.9941 18.5C39.9941 18.5 40.7941 18.18 41.3941 17.54C41.9941 16.9 42.2941 16.02 42.2941 14.9C42.2941 13.78 41.9941 12.9 41.3941 12.26C40.7941 11.62 39.9941 11.3 38.9941 11.3C37.9941 11.3 37.1941 11.62 36.5941 12.26Z" fill="white"/>
<path d="M50.3801 23V1.99999H55.4801V9.49999H55.7801C56.0601 9.01999 56.4201 8.6 56.8601 8.24C57.8801 7.38 59.0701 6.94999 60.4301 6.94999C62.2701 6.94999 63.7001 7.50999 64.7201 8.62999C65.7601 9.72999 66.2801 11.32 66.2801 13.4V23H61.1801V14.15C61.1801 13.25 60.9401 12.55 60.4601 12.05C59.9801 11.55 59.3201 11.3 58.4801 11.3C57.6201 11.3 56.9001 11.62 56.3201 12.26C55.7601 12.88 55.4801 13.71 55.4801 14.75V23H50.3801Z" fill="white"/>
<path d="M77.5383 28.7V7.39999H82.6383V9.49999H82.9383C83.2183 9.03999 83.5983 8.62 84.0783 8.24C85.1783 7.38 86.3483 6.94999 87.5883 6.94999C89.5083 6.94999 91.1383 7.71 92.4783 9.23C93.8183 10.73 94.4883 12.72 94.4883 15.2C94.4883 17.68 93.8183 19.68 92.4783 21.2C91.1383 22.7 89.5083 23.45 87.5883 23.45C86.3283 23.45 85.1583 23.03 84.0783 22.19C83.5983 21.81 83.2183 21.38 82.9383 20.9H82.6383V28.7H77.5383ZM83.5383 12.32C82.9383 13 82.6383 13.96 82.6383 15.2C82.6383 16.44 82.9383 17.4 83.5383 18.08C84.1383 18.76 84.9383 19.1 85.9383 19.1C86.9383 19.1 87.7383 18.76 88.3383 18.08C88.9383 17.4 89.2383 16.44 89.2383 15.2C89.2383 13.96 88.9383 13 88.3383 12.32C87.7383 11.64 86.9383 11.3 85.9383 11.3C84.9383 11.3 84.1383 11.64 83.5383 12.32Z" fill="white"/>
<path d="M98.2842 21.2C96.9442 19.68 96.2742 17.68 96.2742 15.2C96.2742 12.72 96.9442 10.73 98.2842 9.23C99.6242 7.71 101.254 6.94999 103.174 6.94999C104.414 6.94999 105.584 7.38 106.684 8.24C107.144 8.62 107.524 9.03999 107.824 9.49999H108.124V7.39999H113.224V23H108.124V20.9H107.824C107.544 21.38 107.164 21.81 106.684 22.19C105.604 23.03 104.434 23.45 103.174 23.45C101.254 23.45 99.6242 22.7 98.2842 21.2ZM102.424 12.32C101.824 13 101.524 13.96 101.524 15.2C101.524 16.44 101.824 17.4 102.424 18.08C103.024 18.76 103.824 19.1 104.824 19.1C105.824 19.1 106.624 18.76 107.224 18.08C107.824 17.4 108.124 16.44 108.124 15.2C108.124 13.96 107.824 13 107.224 12.32C106.624 11.64 105.824 11.3 104.824 11.3C103.824 11.3 103.024 11.64 102.424 12.32Z" fill="white"/>
<path d="M115.31 17.9H120.41C120.49 18.2 120.66 18.48 120.92 18.74C121.46 19.28 122.24 19.55 123.26 19.55C124.66 19.55 125.36 19.2 125.36 18.5C125.36 18.18 125.16 17.93 124.76 17.75C124.36 17.55 123.76 17.35 122.96 17.15C122.3 16.99 121.87 16.89 121.67 16.85C121.47 16.81 121.05 16.7 120.41 16.52C119.77 16.32 119.31 16.15 119.03 16.01C118.77 15.85 118.4 15.63 117.92 15.35C117.46 15.05 117.12 14.75 116.9 14.45C116.7 14.13 116.51 13.74 116.33 13.28C116.15 12.8 116.06 12.29 116.06 11.75C116.06 10.43 116.65 9.29999 117.83 8.35999C119.01 7.41999 120.67 6.94999 122.81 6.94999C125.49 6.94999 127.61 7.82999 129.17 9.58999C129.79 10.35 130.22 11.22 130.46 12.2H125.51C125.39 11.88 125.25 11.63 125.09 11.45C124.63 10.95 123.97 10.7 123.11 10.7C121.91 10.7 121.31 11.05 121.31 11.75C121.31 12.09 121.51 12.35 121.91 12.53C122.31 12.71 122.92 12.88 123.74 13.04C125.8 13.52 127.19 13.94 127.91 14.3C129.71 15.18 130.61 16.53 130.61 18.35C130.61 19.79 129.97 21 128.69 21.98C127.43 22.96 125.62 23.45 123.26 23.45C120.36 23.45 118.15 22.53 116.63 20.69C115.95 19.87 115.51 18.94 115.31 17.9Z" fill="white"/>
<path d="M131.951 17.9H137.051C137.131 18.2 137.301 18.48 137.561 18.74C138.101 19.28 138.881 19.55 139.901 19.55C141.301 19.55 142.001 19.2 142.001 18.5C142.001 18.18 141.801 17.93 141.401 17.75C141.001 17.55 140.401 17.35 139.601 17.15C138.941 16.99 138.511 16.89 138.311 16.85C138.111 16.81 137.691 16.7 137.051 16.52C136.411 16.32 135.951 16.15 135.671 16.01C135.411 15.85 135.041 15.63 134.561 15.35C134.101 15.05 133.761 14.75 133.541 14.45C133.341 14.13 133.151 13.74 132.971 13.28C132.791 12.8 132.701 12.29 132.701 11.75C132.701 10.43 133.291 9.29999 134.471 8.35999C135.651 7.41999 137.311 6.94999 139.451 6.94999C142.131 6.94999 144.251 7.82999 145.811 9.58999C146.431 10.35 146.861 11.22 147.101 12.2H142.151C142.031 11.88 141.891 11.63 141.731 11.45C141.271 10.95 140.611 10.7 139.751 10.7C138.551 10.7 137.951 11.05 137.951 11.75C137.951 12.09 138.151 12.35 138.551 12.53C138.951 12.71 139.561 12.88 140.381 13.04C142.441 13.52 143.831 13.94 144.551 14.3C146.351 15.18 147.251 16.53 147.251 18.35C147.251 19.79 146.611 21 145.331 21.98C144.071 22.96 142.261 23.45 139.901 23.45C137.001 23.45 134.791 22.53 133.271 20.69C132.591 19.87 132.151 18.94 131.951 17.9Z" fill="white"/>
</svg>
